<svg width="126" height="51" viewBox="0 0 126 51" fill="none" xmlns="http://www.w3.org/2000/svg">
<path d="M55.9149 11.2804C57.4048 11.6785 57.9048 13.5398 56.8142 14.6277L50.5459 20.8798C49.457 21.9658 47.5988 21.4663 47.1996 19.9803L44.9053 11.4398C44.5061 9.95371 45.8649 8.59441 47.3523 8.99193L55.9149 11.2804Z" fill="#47682C"/>
<path d="M79.8949 11.2804C78.405 11.6785 77.905 13.5398 78.9957 14.6277L85.2639 20.8798C86.3528 21.9658 88.211 21.4663 88.6102 19.9803L90.9045 11.4398C91.3038 9.95371 89.9449 8.59441 88.4575 8.99193L79.8949 11.2804Z" fill="#47682C"/>
<path fill-rule="evenodd" clip-rule="evenodd" d="M67.8067 48.0456C63.857 48.0478 59.8426 47.2748 55.8576 45.1785C53.7383 44.0637 53.3651 41.3023 54.8043 39.3884C56.2384 37.4811 58.9248 37.1729 61.1206 38.107C63.3371 39.0498 65.5436 39.3982 67.802 39.397C70.0602 39.3957 72.2696 39.0473 74.4873 38.1054C76.6837 37.1726 79.3703 37.4811 80.8045 39.3884C82.2437 41.3023 81.8704 44.0637 79.7507 45.1777C75.7623 47.2738 71.7456 48.0435 67.8067 48.0456Z" fill="#47682C"/>
<ellipse cx="4.2002" cy="4.20032" rx="4.2002" ry="4.20032" transform="matrix(0.926052 -0.377396 0.379071 0.925368 69.5386 43.2258)" fill="#47682C"/>
<path d="M67.1189 39.3758C66.9229 40.3132 66.5329 41.1775 65.4569 41.0494C64.381 40.9212 63.9829 39.7508 63.9829 39.0009C64.3749 39.1884 65.3641 39.1614 65.6636 39.1614C65.9632 39.1614 65.8836 39.3782 67.1189 39.3758Z" fill="white"/>
<path d="M67.9063 39.3685C68.0977 40.3067 68.4836 41.1727 69.5602 41.0494C70.6367 40.926 71.2345 39.1884 71.0385 39.1884C70.8425 39.1884 70.4552 39.1923 68.8863 39.3728C68.4943 39.3711 69.0823 39.3737 67.9063 39.3685Z" fill="white"/>
<path d="M77.5068 37.5968C77.9644 37.7485 76.7337 40.9825 75.65 40.9825C74.5664 40.9825 74.1747 40.2216 73.7827 38.3468C74.7627 37.9718 75.5734 37.6417 75.65 37.5968C75.7267 37.552 77.0491 37.4452 77.5068 37.5968Z" fill="white"/>
<path d="M61.6305 38.2507C61.5354 40.258 61.0432 41.074 59.9596 41.074C58.876 41.074 58.0092 37.8257 57.9065 37.6883C57.8038 37.5509 58.1686 37.377 59.6705 37.6883C60.8465 37.8758 60.6505 37.8758 61.6305 38.2507Z" fill="white"/>
<path d="M64.4441 2.62056C66.9551 1.17454 70.1584 2.03071 71.6083 4.5352C72.7845 6.56726 72.6713 10.1136 72.3902 12.6362C72.2145 14.2135 70.6243 15.1283 69.1671 14.491C69.1127 14.4672 69.058 14.4431 69.0028 14.4186C67.2549 13.6434 67.2843 11.3401 68.9396 10.3869C70.7314 9.35509 71.3454 7.06947 70.3109 5.28228C69.2764 3.49518 66.9848 2.88272 65.1931 3.91453C63.4015 4.94642 62.7882 7.2316 63.8225 9.01868C64.0071 9.33749 64.2316 9.61894 64.4861 9.86035C64.8839 10.2377 64.9159 10.9776 64.441 11.251C64.1971 11.3915 63.889 11.365 63.6835 11.1724C63.2087 10.7273 62.8088 10.2576 62.5244 9.76625C61.0748 7.26168 61.9331 4.06662 64.4441 2.62056ZM65.9426 5.20935C67.0175 4.5903 68.3928 4.95728 69.0136 6.02937C69.6343 7.10168 69.2656 8.47385 68.1906 9.09295C67.1155 9.71185 65.7405 9.34383 65.1199 8.2716C64.4995 7.19941 64.8678 5.82846 65.9426 5.20935Z" fill="#47682C"/>
<rect x="60.5422" y="29.3792" width="3.20112" height="2.55429" rx="1.27714" fill="#47682C"/>
<rect x="70.4658" y="29.3792" width="3.20112" height="2.55429" rx="1.27714" fill="#47682C"/>
<path fill-rule="evenodd" clip-rule="evenodd" d="M67.4264 23.6321C64.7233 23.6316 61.9809 23.7929 59.25 24.2179C57.9632 24.4182 57.7933 26.0824 58.9782 26.6227C59.2653 26.7536 59.5882 26.7809 59.8952 26.7081C62.4183 26.1097 64.8777 25.9122 67.4228 25.9127C69.9677 25.9132 72.4323 26.1103 74.954 26.7081C75.261 26.7809 75.5839 26.7536 75.871 26.6227C77.0559 26.0824 76.8859 24.4184 75.5991 24.2184C72.8658 23.7934 70.1224 23.6326 67.4264 23.6321Z" fill="#47682C"/>
<path d="M2.737 35.136C2.397 35.136 2.13067 35.0453 1.938 34.864C1.75667 34.6713 1.666 34.3993 1.666 34.048V28.285H0.884C0.612 28.285 0.402333 28.217 0.255 28.081C0.107667 27.9337 0.034 27.7353 0.034 27.486C0.034 27.2253 0.107667 27.027 0.255 26.891C0.402333 26.755 0.612 26.687 0.884 26.687H2.278L1.666 27.248V26.67C1.666 25.5027 1.96067 24.63 2.55 24.052C3.13933 23.4627 3.98933 23.117 5.1 23.015L5.678 22.964C5.90467 22.9413 6.086 22.981 6.222 23.083C6.358 23.1737 6.44867 23.2983 6.494 23.457C6.53933 23.6043 6.545 23.7573 6.511 23.916C6.477 24.0747 6.40333 24.2163 6.29 24.341C6.188 24.4543 6.052 24.5167 5.882 24.528L5.644 24.545C4.998 24.5903 4.52767 24.7547 4.233 25.038C3.93833 25.3213 3.791 25.752 3.791 26.33V26.959L3.519 26.687H5.236C5.508 26.687 5.71767 26.755 5.865 26.891C6.01233 27.027 6.086 27.2253 6.086 27.486C6.086 27.7353 6.01233 27.9337 5.865 28.081C5.71767 28.217 5.508 28.285 5.236 28.285H3.791V34.048C3.791 34.7733 3.43967 35.136 2.737 35.136ZM10.4646 35.17C9.60323 35.17 8.85523 34.9943 8.22056 34.643C7.5859 34.2917 7.0929 33.793 6.74156 33.147C6.39023 32.4897 6.21456 31.719 6.21456 30.835C6.21456 30.1663 6.3109 29.5713 6.50356 29.05C6.70756 28.5173 6.99656 28.064 7.37056 27.69C7.74456 27.3047 8.19223 27.0157 8.71356 26.823C9.2349 26.619 9.81856 26.517 10.4646 26.517C11.3259 26.517 12.0739 26.6927 12.7086 27.044C13.3432 27.3953 13.8362 27.894 14.1876 28.54C14.5389 29.186 14.7146 29.951 14.7146 30.835C14.7146 31.5037 14.6126 32.1043 14.4086 32.637C14.2159 33.1697 13.9326 33.6287 13.5586 34.014C13.1846 34.388 12.7369 34.677 12.2156 34.881C11.6942 35.0737 11.1106 35.17 10.4646 35.17ZM10.4646 33.555C10.8839 33.555 11.2522 33.453 11.5696 33.249C11.8869 33.045 12.1306 32.7447 12.3006 32.348C12.4819 31.94 12.5726 31.4357 12.5726 30.835C12.5726 29.9283 12.3799 29.254 11.9946 28.812C11.6092 28.3587 11.0992 28.132 10.4646 28.132C10.0452 28.132 9.6769 28.234 9.35956 28.438C9.04223 28.6307 8.7929 28.931 8.61156 29.339C8.44156 29.7357 8.35656 30.2343 8.35656 30.835C8.35656 31.7303 8.54923 32.4103 8.93456 32.875C9.3199 33.3283 9.8299 33.555 10.4646 33.555ZM19.8515 35.17C18.9902 35.17 18.2422 34.9943 17.6075 34.643C16.9728 34.2917 16.4798 33.793 16.1285 33.147C15.7772 32.4897 15.6015 31.719 15.6015 30.835C15.6015 30.1663 15.6978 29.5713 15.8905 29.05C16.0945 28.5173 16.3835 28.064 16.7575 27.69C17.1315 27.3047 17.5792 27.0157 18.1005 26.823C18.6218 26.619 19.2055 26.517 19.8515 26.517C20.7128 26.517 21.4608 26.6927 22.0955 27.044C22.7302 27.3953 23.2232 27.894 23.5745 28.54C23.9258 29.186 24.1015 29.951 24.1015 30.835C24.1015 31.5037 23.9995 32.1043 23.7955 32.637C23.6028 33.1697 23.3195 33.6287 22.9455 34.014C22.5715 34.388 22.1238 34.677 21.6025 34.881C21.0812 35.0737 20.4975 35.17 19.8515 35.17ZM19.8515 33.555C20.2708 33.555 20.6392 33.453 20.9565 33.249C21.2738 33.045 21.5175 32.7447 21.6875 32.348C21.8688 31.94 21.9595 31.4357 21.9595 30.835C21.9595 29.9283 21.7668 29.254 21.3815 28.812C20.9962 28.3587 20.4862 28.132 19.8515 28.132C19.4322 28.132 19.0638 28.234 18.7465 28.438C18.4292 28.6307 18.1798 28.931 17.9985 29.339C17.8285 29.7357 17.7435 30.2343 17.7435 30.835C17.7435 31.7303 17.9362 32.4103 18.3215 32.875C18.7068 33.3283 19.2168 33.555 19.8515 33.555ZM28.6434 35.17C27.9181 35.17 27.2777 34.9943 26.7224 34.643C26.1784 34.2917 25.7534 33.793 25.4474 33.147C25.1414 32.4897 24.9884 31.719 24.9884 30.835C24.9884 29.9397 25.1414 29.1747 25.4474 28.54C25.7534 27.894 26.1784 27.3953 26.7224 27.044C27.2777 26.6927 27.9181 26.517 28.6434 26.517C29.3347 26.517 29.9354 26.687 30.4454 27.027C30.9667 27.367 31.3181 27.8147 31.4994 28.37H31.3124V23.95C31.3124 23.5987 31.4031 23.3323 31.5844 23.151C31.7657 22.9697 32.0264 22.879 32.3664 22.879C32.7064 22.879 32.9671 22.9697 33.1484 23.151C33.3411 23.3323 33.4374 23.5987 33.4374 23.95V34.048C33.4374 34.3993 33.3467 34.6713 33.1654 34.864C32.9841 35.0453 32.7234 35.136 32.3834 35.136C32.0434 35.136 31.7827 35.0453 31.6014 34.864C31.4201 34.6713 31.3294 34.3993 31.3294 34.048V32.722L31.5164 33.232C31.3464 33.8213 31.0007 34.2917 30.4794 34.643C29.9581 34.9943 29.3461 35.17 28.6434 35.17ZM29.2384 33.555C29.6577 33.555 30.0261 33.453 30.3434 33.249C30.6607 33.045 30.9044 32.7447 31.0744 32.348C31.2557 31.94 31.3464 31.4357 31.3464 30.835C31.3464 29.9283 31.1537 29.254 30.7684 28.812C30.3831 28.3587 29.8731 28.132 29.2384 28.132C28.8191 28.132 28.4507 28.234 28.1334 28.438C27.8161 28.6307 27.5667 28.931 27.3854 29.339C27.2154 29.7357 27.1304 30.2343 27.1304 30.835C27.1304 31.7303 27.3231 32.4103 27.7084 32.875C28.0937 33.3283 28.6037 33.555 29.2384 33.555ZM36.2868 35.119C35.9468 35.119 35.6861 35.017 35.5048 34.813C35.3234 34.609 35.2328 34.3257 35.2328 33.963V27.724C35.2328 27.35 35.3234 27.0667 35.5048 26.874C35.6861 26.67 35.9468 26.568 36.2868 26.568C36.6268 26.568 36.8874 26.67 37.0688 26.874C37.2614 27.0667 37.3578 27.35 37.3578 27.724V33.963C37.3578 34.3257 37.2671 34.609 37.0858 34.813C36.9044 35.017 36.6381 35.119 36.2868 35.119ZM36.2868 24.987C35.8901 24.987 35.5784 24.8907 35.3518 24.698C35.1364 24.494 35.0288 24.2163 35.0288 23.865C35.0288 23.5023 35.1364 23.2247 35.3518 23.032C35.5784 22.8393 35.8901 22.743 36.2868 22.743C36.6948 22.743 37.0064 22.8393 37.2218 23.032C37.4371 23.2247 37.5448 23.5023 37.5448 23.865C37.5448 24.2163 37.4371 24.494 37.2218 24.698C37.0064 24.8907 36.6948 24.987 36.2868 24.987ZM43.2548 35.17C42.3141 35.17 41.5038 34.9943 40.8238 34.643C40.1438 34.2917 39.6168 33.793 39.2428 33.147C38.8801 32.501 38.6988 31.736 38.6988 30.852C38.6988 29.9907 38.8744 29.237 39.2258 28.591C39.5884 27.945 40.0814 27.4407 40.7048 27.078C41.3394 26.704 42.0591 26.517 42.8638 26.517C43.4531 26.517 43.9801 26.6133 44.4448 26.806C44.9208 26.9987 45.3231 27.2763 45.6518 27.639C45.9918 28.0017 46.2468 28.4437 46.4168 28.965C46.5981 29.475 46.6888 30.053 46.6888 30.699C46.6888 30.903 46.6151 31.0617 46.4678 31.175C46.3318 31.277 46.1334 31.328 45.8728 31.328H40.4158V30.104H45.1928L44.9208 30.359C44.9208 29.8377 44.8414 29.4013 44.6828 29.05C44.5354 28.6987 44.3144 28.4323 44.0198 28.251C43.7364 28.0583 43.3794 27.962 42.9488 27.962C42.4728 27.962 42.0648 28.0753 41.7248 28.302C41.3961 28.5173 41.1411 28.829 40.9598 29.237C40.7898 29.6337 40.7048 30.1097 40.7048 30.665V30.784C40.7048 31.7133 40.9201 32.4103 41.3508 32.875C41.7928 33.3283 42.4388 33.555 43.2888 33.555C43.5834 33.555 43.9121 33.521 44.2748 33.453C44.6488 33.3737 45.0001 33.2433 45.3288 33.062C45.5668 32.926 45.7764 32.8693 45.9578 32.892C46.1391 32.9033 46.2808 32.9657 46.3828 33.079C46.4961 33.1923 46.5641 33.334 46.5868 33.504C46.6094 33.6627 46.5754 33.827 46.4848 33.997C46.4054 34.167 46.2638 34.3143 46.0598 34.439C45.6631 34.6883 45.2041 34.8753 44.6828 35C44.1728 35.1133 43.6968 35.17 43.2548 35.17Z" fill="#47682C"/>
<path d="M92.2962 35.1356C91.8089 35.1356 91.2932 35.0846 90.7492 34.9826C90.2052 34.8806 89.7179 34.7049 89.2872 34.4556C89.1059 34.3422 88.9755 34.2119 88.8962 34.0646C88.8282 33.9059 88.7999 33.7529 88.8112 33.6056C88.8339 33.4469 88.8905 33.3109 88.9812 33.1976C89.0832 33.0842 89.2079 33.0106 89.3552 32.9766C89.5139 32.9426 89.6839 32.9709 89.8652 33.0616C90.3185 33.2769 90.7435 33.4299 91.1402 33.5206C91.5369 33.5999 91.9279 33.6396 92.3132 33.6396C92.8572 33.6396 93.2595 33.5489 93.5202 33.3676C93.7922 33.1749 93.9282 32.9256 93.9282 32.6196C93.9282 32.3589 93.8375 32.1606 93.6562 32.0246C93.4862 31.8772 93.2255 31.7696 92.8742 31.7016L91.1742 31.3786C90.4715 31.2426 89.9332 30.9876 89.5592 30.6136C89.1965 30.2282 89.0152 29.7352 89.0152 29.1346C89.0152 28.5906 89.1625 28.1202 89.4572 27.7236C89.7632 27.3269 90.1825 27.0209 90.7152 26.8056C91.2479 26.5902 91.8599 26.4826 92.5512 26.4826C93.0499 26.4826 93.5145 26.5392 93.9452 26.6526C94.3872 26.7546 94.8122 26.9189 95.2202 27.1456C95.3902 27.2362 95.5035 27.3552 95.5602 27.5026C95.6282 27.6499 95.6452 27.8029 95.6112 27.9616C95.5772 28.1089 95.5092 28.2449 95.4072 28.3696C95.3052 28.4829 95.1749 28.5566 95.0162 28.5906C94.8689 28.6132 94.6989 28.5792 94.5062 28.4886C94.1549 28.3072 93.8149 28.1769 93.4862 28.0976C93.1689 28.0182 92.8629 27.9786 92.5682 27.9786C92.0129 27.9786 91.5992 28.0749 91.3272 28.2676C91.0665 28.4602 90.9362 28.7152 90.9362 29.0326C90.9362 29.2706 91.0155 29.4689 91.1742 29.6276C91.3329 29.7862 91.5765 29.8939 91.9052 29.9506L93.6052 30.2736C94.3419 30.4096 94.8972 30.6589 95.2712 31.0216C95.6565 31.3842 95.8492 31.8716 95.8492 32.4836C95.8492 33.3109 95.5262 33.9626 94.8802 34.4386C94.2342 34.9032 93.3729 35.1356 92.2962 35.1356ZM99.883 35.1356C99.2823 35.1356 98.744 35.0222 98.268 34.7956C97.8033 34.5576 97.435 34.2402 97.163 33.8436C96.9023 33.4469 96.772 32.9992 96.772 32.5006C96.772 31.8886 96.9306 31.4069 97.248 31.0556C97.5653 30.6929 98.081 30.4322 98.795 30.2736C99.509 30.1149 100.467 30.0356 101.668 30.0356H102.518V31.2596H101.685C100.982 31.2596 100.421 31.2936 100.002 31.3616C99.5826 31.4296 99.2823 31.5486 99.101 31.7186C98.931 31.8772 98.846 32.1039 98.846 32.3986C98.846 32.7726 98.9763 33.0786 99.237 33.3166C99.4976 33.5546 99.8603 33.6736 100.325 33.6736C100.699 33.6736 101.028 33.5886 101.311 33.4186C101.606 33.2372 101.838 32.9936 102.008 32.6876C102.178 32.3816 102.263 32.0302 102.263 31.6336V29.6786C102.263 29.1119 102.138 28.7039 101.889 28.4546C101.64 28.2052 101.22 28.0806 100.631 28.0806C100.302 28.0806 99.9453 28.1202 99.56 28.1996C99.186 28.2789 98.7893 28.4149 98.37 28.6076C98.1546 28.7096 97.962 28.7379 97.792 28.6926C97.6333 28.6472 97.5086 28.5566 97.418 28.4206C97.3273 28.2732 97.282 28.1146 97.282 27.9446C97.282 27.7746 97.3273 27.6102 97.418 27.4516C97.5086 27.2816 97.6616 27.1569 97.877 27.0776C98.3983 26.8622 98.897 26.7092 99.373 26.6186C99.8603 26.5279 100.302 26.4826 100.699 26.4826C101.515 26.4826 102.184 26.6072 102.705 26.8566C103.238 27.1059 103.634 27.4856 103.895 27.9956C104.156 28.4942 104.286 29.1402 104.286 29.9336V34.0136C104.286 34.3649 104.201 34.6369 104.031 34.8296C103.861 35.0109 103.617 35.1016 103.3 35.1016C102.983 35.1016 102.733 35.0109 102.552 34.8296C102.382 34.6369 102.297 34.3649 102.297 34.0136V33.1976H102.433C102.354 33.5942 102.195 33.9399 101.957 34.2346C101.73 34.5179 101.441 34.7389 101.09 34.8976C100.739 35.0562 100.336 35.1356 99.883 35.1356ZM109.044 35.1356C108.353 35.1356 107.78 35.0109 107.327 34.7616C106.874 34.5009 106.534 34.1156 106.307 33.6056C106.092 33.0956 105.984 32.4609 105.984 31.7016V27.5876C105.984 27.2249 106.075 26.9586 106.256 26.7886C106.437 26.6072 106.698 26.5166 107.038 26.5166C107.378 26.5166 107.639 26.6072 107.82 26.7886C108.013 26.9586 108.109 27.2249 108.109 27.5876V31.7356C108.109 32.3249 108.228 32.7612 108.466 33.0446C108.704 33.3279 109.084 33.4696 109.605 33.4696C110.172 33.4696 110.636 33.2769 110.999 32.8916C111.362 32.4949 111.543 31.9736 111.543 31.3276V27.5876C111.543 27.2249 111.634 26.9586 111.815 26.7886C111.996 26.6072 112.257 26.5166 112.597 26.5166C112.937 26.5166 113.198 26.6072 113.379 26.7886C113.572 26.9586 113.668 27.2249 113.668 27.5876V34.0136C113.668 34.7389 113.322 35.1016 112.631 35.1016C112.302 35.1016 112.047 35.0109 111.866 34.8296C111.685 34.6369 111.594 34.3649 111.594 34.0136V32.7216L111.832 33.2316C111.594 33.8436 111.231 34.3139 110.744 34.6426C110.268 34.9712 109.701 35.1356 109.044 35.1356ZM116.56 35.1016C116.208 35.1016 115.936 35.0109 115.744 34.8296C115.562 34.6369 115.472 34.3649 115.472 34.0136V27.5876C115.472 27.2362 115.562 26.9699 115.744 26.7886C115.925 26.6072 116.18 26.5166 116.509 26.5166C116.837 26.5166 117.092 26.6072 117.274 26.7886C117.455 26.9699 117.546 27.2362 117.546 27.5876V28.6586H117.376C117.534 27.9786 117.846 27.4629 118.311 27.1116C118.775 26.7602 119.393 26.5506 120.164 26.4826C120.402 26.4599 120.589 26.5222 120.725 26.6696C120.872 26.8056 120.957 27.0209 120.98 27.3156C121.002 27.5989 120.934 27.8312 120.776 28.0126C120.628 28.1826 120.402 28.2846 120.096 28.3186L119.722 28.3526C119.03 28.4206 118.509 28.6359 118.158 28.9986C117.806 29.3499 117.631 29.8486 117.631 30.4946V34.0136C117.631 34.3649 117.54 34.6369 117.359 34.8296C117.177 35.0109 116.911 35.1016 116.56 35.1016Z" fill="#47682C"/>
</svg>
