<svg width="24" height="24" viewBox="0 0 24 24" fill="none" xmlns="http://www.w3.org/2000/svg">
<path d="M14.5266 5.44575C15.4091 5.44575 16.1245 4.73036 16.1245 3.84787C16.1245 2.96539 15.4091 2.25 14.5266 2.25C13.6441 2.25 12.9287 2.96539 12.9287 3.84787C12.9287 4.73036 13.6441 5.44575 14.5266 5.44575Z" fill="#47682C"/>
<path d="M15.0939 6.72434L12.254 5.75684L8.61577 7.07993C8.39902 7.15925 8.21182 7.30312 8.07938 7.49214C7.94695 7.68117 7.87567 7.90626 7.87514 8.13706V10.8746H9.37514V8.39988L11.6632 7.5679L7.43555 20.6246H9.01116L11.3588 13.3209L11.7277 13.4413L13.5001 16.6908V20.6246H15.0002V16.5952C15 16.407 14.9528 16.2218 14.8628 16.0564L13.1021 12.8286L14.4591 8.67007L15.3624 10.2959C15.4599 10.4712 15.6024 10.6173 15.7753 10.7191C15.9482 10.8208 16.1452 10.8745 16.3458 10.8746H18.7502V9.37455H16.5664L15.0939 6.72434Z" fill="#47682C"/>
</svg>
