<svg width="25" height="29" viewBox="0 0 25 29" fill="none" xmlns="http://www.w3.org/2000/svg">
<path d="M19 9C19 13.4183 15.5 20 13 20C10.5 21 5.5 11 5.5 9C5.5 4.58172 8.9101 1 12.5 1C16.0898 1 19 4.58172 19 9Z" fill="white"/>
<g filter="url(#filter0_d_1107_506)">
<mask id="path-2-inside-1_1107_506" fill="white">
<path d="M12.5622 0.479309C16.7514 0.479532 20.1393 3.86818 20.1393 8.05743C20.1391 11.4543 17.4323 15.8177 15.2543 18.7789C13.891 20.6325 11.2332 20.6315 9.87016 18.7777C9.81958 18.7089 9.76871 18.6393 9.71759 18.569C8.09261 16.3346 9.79939 13.4695 12.5622 13.4695V13.4695C15.5512 13.4693 17.9741 11.0464 17.9743 8.05743C17.9743 5.06826 15.5513 2.64459 12.5622 2.64435C9.57287 2.64435 7.14911 5.06811 7.14911 8.05743C7.14915 8.59156 7.22656 9.10761 7.37073 9.595C7.59548 10.3548 7.0995 11.3045 6.30716 11.3045V11.3045C5.89989 11.3045 5.53334 11.0488 5.41579 10.6589C5.14407 9.75746 4.98412 8.87939 4.98407 8.05743C4.98407 3.86804 8.3728 0.479309 12.5622 0.479309ZM12.5622 4.80939C14.3556 4.80964 15.8093 6.264 15.8093 8.05743C15.809 9.85067 14.3554 11.3043 12.5622 11.3045C10.7688 11.3045 9.31439 9.85082 9.31415 8.05743C9.31415 6.26384 10.7686 4.80939 12.5622 4.80939Z"/>
</mask>
<path d="M12.5622 0.479309C16.7514 0.479532 20.1393 3.86818 20.1393 8.05743C20.1391 11.4543 17.4323 15.8177 15.2543 18.7789C13.891 20.6325 11.2332 20.6315 9.87016 18.7777C9.81958 18.7089 9.76871 18.6393 9.71759 18.569C8.09261 16.3346 9.79939 13.4695 12.5622 13.4695V13.4695C15.5512 13.4693 17.9741 11.0464 17.9743 8.05743C17.9743 5.06826 15.5513 2.64459 12.5622 2.64435C9.57287 2.64435 7.14911 5.06811 7.14911 8.05743C7.14915 8.59156 7.22656 9.10761 7.37073 9.595C7.59548 10.3548 7.0995 11.3045 6.30716 11.3045V11.3045C5.89989 11.3045 5.53334 11.0488 5.41579 10.6589C5.14407 9.75746 4.98412 8.87939 4.98407 8.05743C4.98407 3.86804 8.3728 0.479309 12.5622 0.479309ZM12.5622 4.80939C14.3556 4.80964 15.8093 6.264 15.8093 8.05743C15.809 9.85067 14.3554 11.3043 12.5622 11.3045C10.7688 11.3045 9.31439 9.85082 9.31415 8.05743C9.31415 6.26384 10.7686 4.80939 12.5622 4.80939Z" fill="#FF4C00"/>
<path d="M12.5622 0.479309L12.5622 -0.120691H12.5622V0.479309ZM20.1393 8.05743L20.7393 8.05747V8.05743H20.1393ZM17.9743 8.05743L18.5743 8.05748V8.05743H17.9743ZM12.5622 2.64435L12.5622 2.04435H12.5622V2.64435ZM7.14911 8.05743L6.54911 8.05743L6.54911 8.05748L7.14911 8.05743ZM4.98407 8.05743L4.38407 8.05743L4.38407 8.05747L4.98407 8.05743ZM12.5622 4.80939L12.5623 4.20939H12.5622V4.80939ZM15.8093 8.05743L16.4093 8.05752V8.05743H15.8093ZM12.5622 11.3045L12.5622 11.9045L12.5623 11.9045L12.5622 11.3045ZM9.31415 8.05743L8.71415 8.05743L8.71415 8.05752L9.31415 8.05743ZM12.5622 0.479309L12.5622 1.07931C16.4199 1.07951 19.5393 4.19948 19.5393 8.05743H20.1393H20.7393C20.7393 3.53688 17.0828 -0.120451 12.5622 -0.120691L12.5622 0.479309ZM20.1393 8.05743L19.5393 8.0574C19.5392 9.61541 18.9122 11.4546 17.9775 13.3118C17.0493 15.1563 15.8491 16.9576 14.771 18.4234L15.2543 18.7789L15.7377 19.1344C16.8375 17.6391 18.0798 15.778 19.0494 13.8513C20.0127 11.9372 20.7392 9.89627 20.7393 8.05747L20.1393 8.05743ZM9.87016 18.7777L10.3536 18.4222C10.3036 18.3543 10.2533 18.2855 10.2028 18.2161L9.71759 18.569L9.23235 18.9219C9.28408 18.9931 9.33557 19.0635 9.38676 19.1331L9.87016 18.7777ZM12.5622 13.4695L12.5622 14.0695C15.8825 14.0693 18.574 11.3778 18.5743 8.05748L17.9743 8.05743L17.3743 8.05738C17.3741 10.715 15.2198 12.8693 12.5621 12.8695L12.5622 13.4695ZM17.9743 8.05743H18.5743C18.5743 4.73698 15.8828 2.04462 12.5622 2.04435L12.5622 2.64435L12.5621 3.24435C15.2198 3.24456 17.3743 5.39954 17.3743 8.05743H17.9743ZM12.5622 2.64435V2.04435C9.2415 2.04435 6.54911 4.73674 6.54911 8.05743H7.14911H7.74911C7.74911 5.39948 9.90424 3.24435 12.5622 3.24435V2.64435ZM7.14911 8.05743L6.54911 8.05748C6.54916 8.64981 6.63503 9.22315 6.79537 9.76519L7.37073 9.595L7.94608 9.4248C7.81808 8.99207 7.74915 8.5333 7.74911 8.05738L7.14911 8.05743ZM5.41579 10.6589L5.99026 10.4857C5.72994 9.62213 5.58412 8.80424 5.58407 8.0574L4.98407 8.05743L4.38407 8.05747C4.38413 8.95455 4.55819 9.89279 4.84133 10.832L5.41579 10.6589ZM4.98407 8.05743H5.58407C5.58407 4.19941 8.70417 1.07931 12.5622 1.07931V0.479309V-0.120691C8.04143 -0.120691 4.38407 3.53667 4.38407 8.05743H4.98407ZM12.5622 4.80939L12.5621 5.40939C14.024 5.40959 15.2093 6.59522 15.2093 8.05743H15.8093H16.4093C16.4093 5.93278 14.6871 4.20969 12.5623 4.20939L12.5622 4.80939ZM15.8093 8.05743L15.2093 8.05735C15.2091 9.51927 14.024 10.7043 12.5621 10.7045L12.5622 11.3045L12.5623 11.9045C14.6868 11.9042 16.409 10.1821 16.4093 8.05752L15.8093 8.05743ZM12.5622 11.3045V10.7045C11.1 10.7045 9.91435 9.51928 9.91415 8.05735L9.31415 8.05743L8.71415 8.05752C8.71444 10.1824 10.4375 11.9045 12.5622 11.9045V11.3045ZM9.31415 8.05743H9.91415C9.91415 6.59521 11.1 5.40939 12.5622 5.40939V4.80939V4.20939C10.4372 4.20939 8.71415 5.93247 8.71415 8.05743H9.31415ZM6.30716 11.3045V10.7045C6.14715 10.7045 6.02651 10.6059 5.99026 10.4857L5.41579 10.6589L4.84133 10.832C5.04017 11.4917 5.65263 11.9045 6.30716 11.9045V11.3045ZM7.37073 9.595L6.79537 9.76519C6.85657 9.97209 6.82141 10.2289 6.70279 10.4311C6.58682 10.6289 6.43916 10.7045 6.30716 10.7045V11.3045V11.9045C6.9675 11.9045 7.464 11.5053 7.73791 11.0382C8.00918 10.5757 8.10963 9.97769 7.94608 9.4248L7.37073 9.595ZM9.71759 18.569L10.2028 18.2161C9.53553 17.2986 9.55822 16.2791 10.0154 15.4791C10.4775 14.6705 11.396 14.0695 12.5622 14.0695V13.4695V12.8695C10.9656 12.8695 9.64933 13.7011 8.97354 14.8837C8.29289 16.0748 8.27467 17.6051 9.23235 18.9219L9.71759 18.569ZM15.2543 18.7789L14.771 18.4234C13.6476 19.9508 11.477 19.9502 10.3536 18.4222L9.87016 18.7777L9.38676 19.1331C10.9893 21.3128 14.1344 21.3143 15.7377 19.1344L15.2543 18.7789Z" fill="black" mask="url(#path-2-inside-1_1107_506)"/>
</g>
<circle cx="12.5" cy="23.5" r="2.25" fill="#FF4C00" stroke="black" stroke-width="0.5"/>
<defs>
<filter id="filter0_d_1107_506" x="0.98407" y="0.479309" width="23.1553" height="27.6893" filterUnits="userSpaceOnUse" color-interpolation-filters="sRGB">
<feFlood flood-opacity="0" result="BackgroundImageFix"/>
<feColorMatrix in="SourceAlpha" type="matrix" values="0 0 0 0 0 0 0 0 0 0 0 0 0 0 0 0 0 0 127 0" result="hardAlpha"/>
<feOffset dy="4"/>
<feGaussianBlur stdDeviation="2"/>
<feComposite in2="hardAlpha" operator="out"/>
<feColorMatrix type="matrix" values="0 0 0 0 0 0 0 0 0 0 0 0 0 0 0 0 0 0 0.25 0"/>
<feBlend mode="normal" in2="BackgroundImageFix" result="effect1_dropShadow_1107_506"/>
<feBlend mode="normal" in="SourceGraphic" in2="effect1_dropShadow_1107_506" result="shape"/>
</filter>
</defs>
</svg>
