<svg width="247" height="160" viewBox="0 0 247 160" fill="none" xmlns="http://www.w3.org/2000/svg">
<path d="M103.069 35.8822C106.787 36.8784 108.032 41.5257 105.31 44.2473L82.6525 66.9051C79.9308 69.6268 75.2835 68.3815 74.2873 64.6637L65.994 33.7126C64.9978 29.9947 68.3998 26.5927 72.1177 27.5889L103.069 35.8822Z" fill="#47682C"/>
<path d="M173.741 35.8822C170.023 36.8784 168.778 41.5257 171.5 44.2473L194.158 66.9051C196.879 69.6268 201.527 68.3815 202.523 64.6637L210.816 33.7126C211.812 29.9947 208.41 26.5927 204.692 27.5888L173.741 35.8822Z" fill="#47682C"/>
<path fill-rule="evenodd" clip-rule="evenodd" d="M138.1 150.463C125.755 150.47 113.208 148.046 100.753 141.473C94.1377 137.982 92.9732 129.36 97.4612 123.376C101.949 117.392 110.373 116.426 117.256 119.354C124.166 122.293 131.045 123.379 138.085 123.376C145.125 123.372 152.013 122.285 158.926 119.349C165.811 116.425 174.236 117.392 178.724 123.376C183.212 129.36 182.047 137.982 175.43 141.471C162.965 148.043 150.411 150.456 138.1 150.463Z" fill="#47682C"/>
<ellipse cx="160.634" cy="142.578" rx="13.1259" ry="13.1505" transform="rotate(-22.2243 160.634 142.578)" fill="#47682C"/>
<ellipse cx="113.586" cy="117.611" rx="6.12935" ry="11.0186" fill="white"/>
<ellipse cx="132.065" cy="117.611" rx="6.12935" ry="11.0186" transform="rotate(6.80819 132.065 117.611)" fill="white"/>
<ellipse cx="6.12935" cy="11.0186" rx="6.12935" ry="11.0186" transform="matrix(-0.992949 0.118546 0.118546 0.992949 147.523 105.381)" fill="white"/>
<ellipse cx="162.602" cy="117.611" rx="6.12935" ry="11.0186" fill="white"/>
<path d="M127.594 8.19238C135.438 3.66339 145.446 6.34449 149.976 14.1888C153.648 20.5502 153.296 31.6502 152.419 39.5504C151.87 44.4947 146.894 47.3661 142.338 45.3691C142.168 45.2946 141.997 45.219 141.824 45.1424C136.365 42.7152 136.463 35.5038 141.638 32.5164C147.235 29.2847 149.153 22.1271 145.921 16.5296C142.689 10.9324 135.532 9.01431 129.934 12.246C124.337 15.4777 122.419 22.6354 125.651 28.2327C126.228 29.2324 126.93 30.1145 127.727 30.8708C128.97 32.0516 129.069 34.3682 127.584 35.2255C126.82 35.6662 125.857 35.5837 125.215 34.9797C123.733 33.585 122.486 32.1119 121.597 30.5731C117.068 22.7287 119.75 12.7215 127.594 8.19238ZM132.275 16.3004C135.634 14.3614 139.928 15.5117 141.868 18.8699C143.807 22.2284 142.656 26.5238 139.297 28.4628C135.939 30.4016 131.644 29.2503 129.705 25.8919C127.766 22.5336 128.917 18.2394 132.275 16.3004Z" fill="#47682C"/>
<rect x="115.405" y="92" width="10" height="8" rx="4" fill="#47682C"/>
<rect x="146.405" y="92" width="10" height="8" rx="4" fill="#47682C"/>
<g filter="url(#filter0_d_1500_6724)">
<path fill-rule="evenodd" clip-rule="evenodd" d="M136.911 74C128.466 73.9984 119.898 74.5038 111.366 75.8353C107.34 76.4635 106.807 81.6696 110.513 83.3637C111.414 83.7754 112.428 83.8614 113.391 83.6324C121.271 81.7594 128.952 81.1414 136.9 81.1429C144.847 81.1443 152.544 81.7613 160.419 83.6325C161.383 83.8614 162.397 83.7754 163.297 83.3637C167.003 81.6696 166.47 76.4643 162.444 75.8366C153.905 74.5053 145.334 74.0016 136.911 74Z" fill="#47682C"/>
</g>
<path d="M189.808 112.32C188.891 112.32 187.92 112.224 186.896 112.032C185.872 111.84 184.955 111.509 184.144 111.04C183.803 110.827 183.557 110.581 183.408 110.304C183.28 110.005 183.227 109.717 183.248 109.44C183.291 109.141 183.397 108.885 183.568 108.672C183.76 108.459 183.995 108.32 184.272 108.256C184.571 108.192 184.891 108.245 185.232 108.416C186.085 108.821 186.885 109.109 187.632 109.28C188.379 109.429 189.115 109.504 189.84 109.504C190.864 109.504 191.621 109.333 192.112 108.992C192.624 108.629 192.88 108.16 192.88 107.584C192.88 107.093 192.709 106.72 192.368 106.464C192.048 106.187 191.557 105.984 190.896 105.856L187.696 105.248C186.373 104.992 185.36 104.512 184.656 103.808C183.973 103.083 183.632 102.155 183.632 101.024C183.632 100 183.909 99.1147 184.464 98.368C185.04 97.6213 185.829 97.0453 186.832 96.64C187.835 96.2347 188.987 96.032 190.288 96.032C191.227 96.032 192.101 96.1387 192.912 96.352C193.744 96.544 194.544 96.8533 195.312 97.28C195.632 97.4507 195.845 97.6747 195.952 97.952C196.08 98.2293 196.112 98.5173 196.048 98.816C195.984 99.0933 195.856 99.3493 195.664 99.584C195.472 99.7973 195.227 99.936 194.928 100C194.651 100.043 194.331 99.9787 193.968 99.808C193.307 99.4667 192.667 99.2213 192.048 99.072C191.451 98.9227 190.875 98.848 190.32 98.848C189.275 98.848 188.496 99.0293 187.984 99.392C187.493 99.7547 187.248 100.235 187.248 100.832C187.248 101.28 187.397 101.653 187.696 101.952C187.995 102.251 188.453 102.453 189.072 102.56L192.272 103.168C193.659 103.424 194.704 103.893 195.408 104.576C196.133 105.259 196.496 106.176 196.496 107.328C196.496 108.885 195.888 110.112 194.672 111.008C193.456 111.883 191.835 112.32 189.808 112.32ZM204.857 112.32C203.726 112.32 202.713 112.107 201.817 111.68C200.942 111.232 200.249 110.635 199.737 109.888C199.246 109.141 199.001 108.299 199.001 107.36C199.001 106.208 199.3 105.301 199.897 104.64C200.494 103.957 201.465 103.467 202.809 103.168C204.153 102.869 205.956 102.72 208.217 102.72H209.817V105.024H208.249C206.926 105.024 205.87 105.088 205.081 105.216C204.292 105.344 203.726 105.568 203.385 105.888C203.065 106.187 202.905 106.613 202.905 107.168C202.905 107.872 203.15 108.448 203.641 108.896C204.132 109.344 204.814 109.568 205.689 109.568C206.393 109.568 207.012 109.408 207.545 109.088C208.1 108.747 208.537 108.288 208.857 107.712C209.177 107.136 209.337 106.475 209.337 105.728V102.048C209.337 100.981 209.102 100.213 208.633 99.744C208.164 99.2747 207.374 99.04 206.265 99.04C205.646 99.04 204.974 99.1147 204.249 99.264C203.545 99.4133 202.798 99.6693 202.009 100.032C201.604 100.224 201.241 100.277 200.921 100.192C200.622 100.107 200.388 99.936 200.217 99.68C200.046 99.4027 199.961 99.104 199.961 98.784C199.961 98.464 200.046 98.1547 200.217 97.856C200.388 97.536 200.676 97.3013 201.081 97.152C202.062 96.7467 203.001 96.4587 203.897 96.288C204.814 96.1173 205.646 96.032 206.393 96.032C207.929 96.032 209.188 96.2667 210.169 96.736C211.172 97.2053 211.918 97.92 212.409 98.88C212.9 99.8187 213.145 101.035 213.145 102.528V110.208C213.145 110.869 212.985 111.381 212.665 111.744C212.345 112.085 211.886 112.256 211.289 112.256C210.692 112.256 210.222 112.085 209.881 111.744C209.561 111.381 209.401 110.869 209.401 110.208V108.672H209.657C209.508 109.419 209.209 110.069 208.761 110.624C208.334 111.157 207.79 111.573 207.129 111.872C206.468 112.171 205.71 112.32 204.857 112.32ZM222.869 112.32C221.568 112.32 220.49 112.085 219.637 111.616C218.784 111.125 218.144 110.4 217.717 109.44C217.312 108.48 217.109 107.285 217.109 105.856V98.112C217.109 97.4293 217.28 96.928 217.621 96.608C217.962 96.2667 218.453 96.096 219.093 96.096C219.733 96.096 220.224 96.2667 220.565 96.608C220.928 96.928 221.109 97.4293 221.109 98.112V105.92C221.109 107.029 221.333 107.851 221.781 108.384C222.229 108.917 222.944 109.184 223.925 109.184C224.992 109.184 225.866 108.821 226.549 108.096C227.232 107.349 227.573 106.368 227.573 105.152V98.112C227.573 97.4293 227.744 96.928 228.085 96.608C228.426 96.2667 228.917 96.096 229.557 96.096C230.197 96.096 230.688 96.2667 231.029 96.608C231.392 96.928 231.573 97.4293 231.573 98.112V110.208C231.573 111.573 230.922 112.256 229.621 112.256C229.002 112.256 228.522 112.085 228.181 111.744C227.84 111.381 227.669 110.869 227.669 110.208V107.776L228.117 108.736C227.669 109.888 226.986 110.773 226.069 111.392C225.173 112.011 224.106 112.32 222.869 112.32ZM237.784 112.256C237.123 112.256 236.611 112.085 236.248 111.744C235.907 111.381 235.736 110.869 235.736 110.208V98.112C235.736 97.4507 235.907 96.9493 236.248 96.608C236.59 96.2667 237.07 96.096 237.688 96.096C238.307 96.096 238.787 96.2667 239.128 96.608C239.47 96.9493 239.64 97.4507 239.64 98.112V100.128H239.32C239.619 98.848 240.206 97.8773 241.08 97.216C241.955 96.5547 243.118 96.16 244.568 96.032C245.016 95.9893 245.368 96.1067 245.624 96.384C245.902 96.64 246.062 97.0453 246.104 97.6C246.147 98.1333 246.019 98.5707 245.72 98.912C245.443 99.232 245.016 99.424 244.44 99.488L243.736 99.552C242.435 99.68 241.454 100.085 240.792 100.768C240.131 101.429 239.8 102.368 239.8 103.584V110.208C239.8 110.869 239.63 111.381 239.288 111.744C238.947 112.085 238.446 112.256 237.784 112.256Z" fill="#47682C"/>
<path d="M5.152 112.256C4.512 112.256 4.01067 112.085 3.648 111.744C3.30667 111.381 3.136 110.869 3.136 110.208V99.36H1.664C1.152 99.36 0.757333 99.232 0.48 98.976C0.202667 98.6987 0.064 98.3253 0.064 97.856C0.064 97.3653 0.202667 96.992 0.48 96.736C0.757333 96.48 1.152 96.352 1.664 96.352H4.288L3.136 97.408V96.32C3.136 94.1227 3.69067 92.48 4.8 91.392C5.90933 90.2827 7.50933 89.632 9.6 89.44L10.688 89.344C11.1147 89.3013 11.456 89.376 11.712 89.568C11.968 89.7387 12.1387 89.9733 12.224 90.272C12.3093 90.5493 12.32 90.8373 12.256 91.136C12.192 91.4347 12.0533 91.7013 11.84 91.936C11.648 92.1493 11.392 92.2667 11.072 92.288L10.624 92.32C9.408 92.4053 8.52267 92.7147 7.968 93.248C7.41333 93.7813 7.136 94.592 7.136 95.68V96.864L6.624 96.352H9.856C10.368 96.352 10.7627 96.48 11.04 96.736C11.3173 96.992 11.456 97.3653 11.456 97.856C11.456 98.3253 11.3173 98.6987 11.04 98.976C10.7627 99.232 10.368 99.36 9.856 99.36H7.136V110.208C7.136 111.573 6.47467 112.256 5.152 112.256ZM20.466 112.32C18.8447 112.32 17.4367 111.989 16.242 111.328C15.0473 110.667 14.1193 109.728 13.458 108.512C12.7967 107.275 12.466 105.824 12.466 104.16C12.466 102.901 12.6473 101.781 13.01 100.8C13.394 99.7973 13.938 98.944 14.642 98.24C15.346 97.5147 16.1887 96.9707 17.17 96.608C18.1513 96.224 19.25 96.032 20.466 96.032C22.0873 96.032 23.4953 96.3627 24.69 97.024C25.8847 97.6853 26.8127 98.624 27.474 99.84C28.1353 101.056 28.466 102.496 28.466 104.16C28.466 105.419 28.274 106.549 27.89 107.552C27.5273 108.555 26.994 109.419 26.29 110.144C25.586 110.848 24.7433 111.392 23.762 111.776C22.7807 112.139 21.682 112.32 20.466 112.32ZM20.466 109.28C21.2553 109.28 21.9487 109.088 22.546 108.704C23.1433 108.32 23.602 107.755 23.922 107.008C24.2633 106.24 24.434 105.291 24.434 104.16C24.434 102.453 24.0713 101.184 23.346 100.352C22.6207 99.4987 21.6607 99.072 20.466 99.072C19.6767 99.072 18.9833 99.264 18.386 99.648C17.7887 100.011 17.3193 100.576 16.978 101.344C16.658 102.091 16.498 103.029 16.498 104.16C16.498 105.845 16.8607 107.125 17.586 108C18.3113 108.853 19.2713 109.28 20.466 109.28ZM38.9035 112.32C37.2822 112.32 35.8742 111.989 34.6795 111.328C33.4848 110.667 32.5568 109.728 31.8955 108.512C31.2342 107.275 30.9035 105.824 30.9035 104.16C30.9035 102.901 31.0848 101.781 31.4475 100.8C31.8315 99.7973 32.3755 98.944 33.0795 98.24C33.7835 97.5147 34.6262 96.9707 35.6075 96.608C36.5888 96.224 37.6875 96.032 38.9035 96.032C40.5248 96.032 41.9328 96.3627 43.1275 97.024C44.3222 97.6853 45.2502 98.624 45.9115 99.84C46.5728 101.056 46.9035 102.496 46.9035 104.16C46.9035 105.419 46.7115 106.549 46.3275 107.552C45.9648 108.555 45.4315 109.419 44.7275 110.144C44.0235 110.848 43.1808 111.392 42.1995 111.776C41.2182 112.139 40.1195 112.32 38.9035 112.32ZM38.9035 109.28C39.6928 109.28 40.3862 109.088 40.9835 108.704C41.5808 108.32 42.0395 107.755 42.3595 107.008C42.7008 106.24 42.8715 105.291 42.8715 104.16C42.8715 102.453 42.5088 101.184 41.7835 100.352C41.0582 99.4987 40.0982 99.072 38.9035 99.072C38.1142 99.072 37.4208 99.264 36.8235 99.648C36.2262 100.011 35.7568 100.576 35.4155 101.344C35.0955 102.091 34.9355 103.029 34.9355 104.16C34.9355 105.845 35.2982 107.125 36.0235 108C36.7488 108.853 37.7088 109.28 38.9035 109.28ZM56.221 112.32C54.8557 112.32 53.6503 111.989 52.605 111.328C51.581 110.667 50.781 109.728 50.205 108.512C49.629 107.275 49.341 105.824 49.341 104.16C49.341 102.475 49.629 101.035 50.205 99.84C50.781 98.624 51.581 97.6853 52.605 97.024C53.6503 96.3627 54.8557 96.032 56.221 96.032C57.5223 96.032 58.653 96.352 59.613 96.992C60.5943 97.632 61.2557 98.4747 61.597 99.52H61.245V91.2C61.245 90.5387 61.4157 90.0373 61.757 89.696C62.0983 89.3547 62.589 89.184 63.229 89.184C63.869 89.184 64.3597 89.3547 64.701 89.696C65.0637 90.0373 65.245 90.5387 65.245 91.2V110.208C65.245 110.869 65.0743 111.381 64.733 111.744C64.3917 112.085 63.901 112.256 63.261 112.256C62.621 112.256 62.1303 112.085 61.789 111.744C61.4477 111.381 61.277 110.869 61.277 110.208V107.712L61.629 108.672C61.309 109.781 60.6583 110.667 59.677 111.328C58.6957 111.989 57.5437 112.32 56.221 112.32ZM57.341 109.28C58.1303 109.28 58.8237 109.088 59.421 108.704C60.0183 108.32 60.477 107.755 60.797 107.008C61.1383 106.24 61.309 105.291 61.309 104.16C61.309 102.453 60.9463 101.184 60.221 100.352C59.4957 99.4987 58.5357 99.072 57.341 99.072C56.5517 99.072 55.8583 99.264 55.261 99.648C54.6637 100.011 54.1943 100.576 53.853 101.344C53.533 102.091 53.373 103.029 53.373 104.16C53.373 105.845 53.7357 107.125 54.461 108C55.1863 108.853 56.1463 109.28 57.341 109.28ZM71.3765 112.224C70.7365 112.224 70.2458 112.032 69.9045 111.648C69.5632 111.264 69.3925 110.731 69.3925 110.048V98.304C69.3925 97.6 69.5632 97.0667 69.9045 96.704C70.2458 96.32 70.7365 96.128 71.3765 96.128C72.0165 96.128 72.5072 96.32 72.8485 96.704C73.2112 97.0667 73.3925 97.6 73.3925 98.304V110.048C73.3925 110.731 73.2218 111.264 72.8805 111.648C72.5392 112.032 72.0378 112.224 71.3765 112.224ZM71.3765 93.152C70.6298 93.152 70.0432 92.9707 69.6165 92.608C69.2112 92.224 69.0085 91.7013 69.0085 91.04C69.0085 90.3573 69.2112 89.8347 69.6165 89.472C70.0432 89.1093 70.6298 88.928 71.3765 88.928C72.1445 88.928 72.7312 89.1093 73.1365 89.472C73.5418 89.8347 73.7445 90.3573 73.7445 91.04C73.7445 91.7013 73.5418 92.224 73.1365 92.608C72.7312 92.9707 72.1445 93.152 71.3765 93.152ZM85.2608 112.32C83.4901 112.32 81.9648 111.989 80.6848 111.328C79.4048 110.667 78.4128 109.728 77.7088 108.512C77.0261 107.296 76.6848 105.856 76.6848 104.192C76.6848 102.571 77.0154 101.152 77.6768 99.936C78.3594 98.72 79.2874 97.7707 80.4608 97.088C81.6554 96.384 83.0101 96.032 84.5248 96.032C85.6341 96.032 86.6261 96.2133 87.5008 96.576C88.3968 96.9387 89.1541 97.4613 89.7728 98.144C90.4128 98.8267 90.8928 99.6587 91.2128 100.64C91.5541 101.6 91.7248 102.688 91.7248 103.904C91.7248 104.288 91.5861 104.587 91.3088 104.8C91.0528 104.992 90.6794 105.088 90.1888 105.088H79.9168V102.784H88.9088L88.3968 103.264C88.3968 102.283 88.2474 101.461 87.9488 100.8C87.6714 100.139 87.2554 99.6373 86.7008 99.296C86.1674 98.9333 85.4954 98.752 84.6848 98.752C83.7888 98.752 83.0208 98.9653 82.3808 99.392C81.7621 99.7973 81.2821 100.384 80.9408 101.152C80.6208 101.899 80.4608 102.795 80.4608 103.84V104.064C80.4608 105.813 80.8661 107.125 81.6768 108C82.5088 108.853 83.7248 109.28 85.3248 109.28C85.8794 109.28 86.4981 109.216 87.1808 109.088C87.8848 108.939 88.5461 108.693 89.1648 108.352C89.6128 108.096 90.0074 107.989 90.3488 108.032C90.6901 108.053 90.9568 108.171 91.1488 108.384C91.3621 108.597 91.4901 108.864 91.5328 109.184C91.5754 109.483 91.5114 109.792 91.3408 110.112C91.1914 110.432 90.9248 110.709 90.5408 110.944C89.7941 111.413 88.9301 111.765 87.9488 112C86.9888 112.213 86.0928 112.32 85.2608 112.32Z" fill="#47682C"/>
<defs>
<filter id="filter0_d_1500_6724" x="104.017" y="74" width="65.7764" height="17.7568" filterUnits="userSpaceOnUse" color-interpolation-filters="sRGB">
<feFlood flood-opacity="0" result="BackgroundImageFix"/>
<feColorMatrix in="SourceAlpha" type="matrix" values="0 0 0 0 0 0 0 0 0 0 0 0 0 0 0 0 0 0 127 0" result="hardAlpha"/>
<feOffset dy="4"/>
<feGaussianBlur stdDeviation="2"/>
<feComposite in2="hardAlpha" operator="out"/>
<feColorMatrix type="matrix" values="0 0 0 0 0 0 0 0 0 0 0 0 0 0 0 0 0 0 0.25 0"/>
<feBlend mode="normal" in2="BackgroundImageFix" result="effect1_dropShadow_1500_6724"/>
<feBlend mode="normal" in="SourceGraphic" in2="effect1_dropShadow_1500_6724" result="shape"/>
</filter>
</defs>
</svg>
