<svg width="51" height="51" viewBox="0 0 51 51" fill="none" xmlns="http://www.w3.org/2000/svg">
<path d="M39.8438 44.625H29.9904C31.6482 43.1473 33.2116 41.567 34.6715 39.8935C40.1404 33.604 43.0312 26.9735 43.0312 20.7188C43.0312 16.0692 41.1842 11.61 37.8965 8.32228C34.6087 5.03454 30.1496 3.1875 25.5 3.1875C20.8504 3.1875 16.3913 5.03454 13.1035 8.32228C9.81579 11.61 7.96875 16.0692 7.96875 20.7188C7.96875 26.9735 10.8596 33.604 16.3285 39.8935C17.7884 41.567 19.3519 43.1473 21.0097 44.625H11.1562C10.7336 44.625 10.3282 44.7929 10.0293 45.0918C9.73041 45.3907 9.5625 45.7961 9.5625 46.2188C9.5625 46.6414 9.73041 47.0468 10.0293 47.3457C10.3282 47.6446 10.7336 47.8125 11.1562 47.8125H39.8438C40.2664 47.8125 40.6718 47.6446 40.9707 47.3457C41.2696 47.0468 41.4375 46.6414 41.4375 46.2188C41.4375 45.7961 41.2696 45.3907 40.9707 45.0918C40.6718 44.7929 40.2664 44.625 39.8438 44.625ZM25.5 14.3438C26.7609 14.3438 27.9934 14.7176 29.0418 15.4181C30.0902 16.1186 30.9073 17.1143 31.3898 18.2791C31.8723 19.444 31.9985 20.7258 31.7526 21.9625C31.5066 23.1991 30.8994 24.335 30.0079 25.2266C29.1163 26.1181 27.9804 26.7253 26.7438 26.9713C25.5071 27.2172 24.2253 27.091 23.0604 26.6085C21.8956 26.126 20.8999 25.3089 20.1994 24.2605C19.4989 23.2121 19.1251 21.9796 19.1251 20.7188C19.125 19.8816 19.2899 19.0526 19.6103 18.2791C19.9307 17.5057 20.4003 16.8029 20.9922 16.2109C21.5842 15.619 22.287 15.1494 23.0604 14.829C23.8339 14.5086 24.6629 14.3437 25.5 14.3438Z" fill="#EA4335"/>
<circle cx="26" cy="21" r="7" fill="#B31412"/>
</svg>
