<svg width="186" height="167" viewBox="0 0 186 167" fill="none" xmlns="http://www.w3.org/2000/svg">
<path d="M53.2332 36.5185C58.4382 37.9132 60.1815 44.4194 56.3712 48.2297L37.2089 67.392C33.3986 71.2023 26.8924 69.459 25.4977 64.254L18.4838 38.0778C17.0891 32.8729 21.852 28.11 27.057 29.5046L53.2332 36.5185Z" fill="#47682C"/>
<path d="M132.767 36.5185C127.562 37.9132 125.818 44.4194 129.629 48.2297L148.791 67.392C152.601 71.2023 159.108 69.459 160.502 64.254L167.516 38.0778C168.911 32.8729 164.148 28.11 158.943 29.5046L132.767 36.5185Z" fill="#47682C"/>
<path fill-rule="evenodd" clip-rule="evenodd" d="M92.6822 156.513C79.8411 156.52 66.7896 153.999 53.8337 147.162C46.9524 143.53 45.7411 134.561 50.4095 128.336C55.078 122.112 63.8406 121.107 71.0005 124.153C78.1877 127.21 85.3434 128.34 92.6669 128.336C99.9894 128.332 107.155 127.202 114.346 124.148C121.507 121.106 130.271 122.112 134.94 128.336C139.608 134.561 138.396 143.53 131.514 147.159C118.547 153.996 105.488 156.506 92.6822 156.513Z" fill="#47682C"/>
<ellipse cx="116.123" cy="148.31" rx="13.6536" ry="13.6792" transform="rotate(-22.2243 116.123 148.31)" fill="#47682C"/>
<ellipse cx="67.1824" cy="122.34" rx="6.3758" ry="11.4616" fill="#F8F9FA"/>
<ellipse cx="86.4038" cy="122.339" rx="6.3758" ry="11.4616" transform="rotate(6.80819 86.4038 122.339)" fill="#F8F9FA"/>
<ellipse cx="6.3758" cy="11.4616" rx="6.3758" ry="11.4616" transform="matrix(-0.992949 0.118546 0.118546 0.992949 102.484 109.554)" fill="#F8F9FA"/>
<ellipse cx="118.169" cy="122.34" rx="6.3758" ry="11.4616" fill="#F8F9FA"/>
<path d="M81.7548 8.52148C89.9147 3.81032 100.325 6.59967 105.036 14.7596C108.856 21.377 108.49 32.9231 107.577 41.1407C107.006 46.2835 101.831 49.2703 97.0918 47.1933C96.9151 47.1159 96.737 47.0373 96.5576 46.9575C90.8782 44.433 90.9806 36.9316 96.3632 33.824C102.185 30.4623 104.18 23.0171 100.818 17.1947C97.4567 11.3723 90.0118 9.37697 84.1893 12.7383C78.3668 16.0999 76.3718 23.5455 79.7334 29.368C80.3337 30.4078 81.0642 31.3255 81.8925 32.1124C83.1852 33.3406 83.2872 35.7499 81.7429 36.6414C80.9491 37.0997 79.9469 37.0138 79.2793 36.3857C77.7376 34.9351 76.4407 33.4032 75.5166 31.8026C70.8054 23.6426 73.5948 13.2327 81.7548 8.52148ZM86.6239 16.9551C90.1174 14.9383 94.5845 16.1358 96.6014 19.6293C98.6183 23.1227 97.4214 27.5893 93.9281 29.6063C90.4346 31.6233 85.9672 30.4269 83.9502 26.9335C81.9332 23.44 83.1304 18.9721 86.6239 16.9551Z" fill="#47682C"/>
<rect x="69.0752" y="95.6992" width="10.4021" height="8.32167" rx="4.16083" fill="#47682C"/>
<rect x="101.322" y="95.6992" width="10.4021" height="8.32167" rx="4.16083" fill="#47682C"/>
<g filter="url(#filter0_d_1267_4991)">
<path fill-rule="evenodd" clip-rule="evenodd" d="M91.4453 76.9754C82.6608 76.9737 73.7481 77.4994 64.8731 78.8844C60.6853 79.5379 60.1315 84.9533 63.9863 86.7155C64.9231 87.1438 65.9777 87.2333 66.9799 86.995C75.1762 85.0467 83.1659 84.4039 91.4336 84.4054C99.7008 84.407 107.707 85.0487 115.899 86.9951C116.901 87.2333 117.956 87.1438 118.893 86.7155C122.747 84.9533 122.193 79.5387 118.006 78.8858C109.123 77.501 100.207 76.977 91.4453 76.9754Z" fill="#47682C"/>
</g>
<defs>
<filter id="filter0_d_1267_4991" x="57.3896" y="76.9753" width="68.0996" height="18.1492" filterUnits="userSpaceOnUse" color-interpolation-filters="sRGB">
<feFlood flood-opacity="0" result="BackgroundImageFix"/>
<feColorMatrix in="SourceAlpha" type="matrix" values="0 0 0 0 0 0 0 0 0 0 0 0 0 0 0 0 0 0 127 0" result="hardAlpha"/>
<feOffset dy="4"/>
<feGaussianBlur stdDeviation="2"/>
<feComposite in2="hardAlpha" operator="out"/>
<feColorMatrix type="matrix" values="0 0 0 0 0 0 0 0 0 0 0 0 0 0 0 0 0 0 0.25 0"/>
<feBlend mode="normal" in2="BackgroundImageFix" result="effect1_dropShadow_1267_4991"/>
<feBlend mode="normal" in="SourceGraphic" in2="effect1_dropShadow_1267_4991" result="shape"/>
</filter>
</defs>
</svg>
